{
    "asset" : {
        "generator" : "Khronos glTF Blender I/O v3.4.50",
        "version" : "2.0"
    },
    "scene" : 0,
    "scenes" : [
        {
            "name" : "Scene",
            "nodes" : [
                0,
                1,
                2
            ]
        }
    ],
    "nodes" : [
        {
            "mesh" : 0,
            "name" : "Cylindre",
            "rotation" : [
                0,
                1,
                0,
                0
            ],
            "scale" : [
                -0.4491932988166809,
                -6.787839412689209,
                -0.4491932988166809
            ],
            "translation" : [
                0,
                6.606227874755859,
                0
            ]
        },
        {
            "mesh" : 1,
            "name" : "Pied",
            "rotation" : [
                -1,
                0,
                0,
                4.371138828673793e-08
            ],
            "scale" : [
                1,
                0.20000000298023224,
                1
            ],
            "translation" : [
                0,
                13.769999504089355,
                0
            ]
        },
        {
            "mesh" : 2,
            "name" : "Pied.001",
            "scale" : [
                1,
                0.20000000298023224,
                1
            ],
            "translation" : [
                0,
                -0.44999998807907104,
                0
            ]
        }
    ],
    "meshes" : [
        {
            "name" : "Cylinder",
            "primitives" : [
                {
                    "attributes" : {
                        "POSITION" : 0,
                        "TEXCOORD_0" : 1,
                        "NORMAL" : 2
                    },
                    "indices" : 3
                }
            ]
        },
        {
            "name" : "Cube.015",
            "primitives" : [
                {
                    "attributes" : {
                        "POSITION" : 4,
                        "TEXCOORD_0" : 5,
                        "NORMAL" : 6
                    },
                    "indices" : 7
                }
            ]
        },
        {
            "name" : "Cube.016",
            "primitives" : [
                {
                    "attributes" : {
                        "POSITION" : 8,
                        "TEXCOORD_0" : 9,
                        "NORMAL" : 10
                    },
                    "indices" : 7
                }
            ]
        }
    ],
    "accessors" : [
        {
            "bufferView" : 0,
            "componentType" : 5126,
            "count" : 528,
            "max" : [
                1.0606601238250732,
                1,
                1.0606601238250732
            ],
            "min" : [
                -1.0606601238250732,
                -1,
                -1.0606601238250732
            ],
            "type" : "VEC3"
        },
        {
            "bufferView" : 1,
            "componentType" : 5126,
            "count" : 528,
            "type" : "VEC2"
        },
        {
            "bufferView" : 2,
            "componentType" : 5126,
            "count" : 528,
            "type" : "VEC3"
        },
        {
            "bufferView" : 3,
            "componentType" : 5123,
            "count" : 972,
            "type" : "SCALAR"
        },
        {
            "bufferView" : 4,
            "componentType" : 5126,
            "count" : 10660,
            "max" : [
                1,
                3.4975333213806152,
                1
            ],
            "min" : [
                -1,
                -1,
                -1
            ],
            "type" : "VEC3"
        },
        {
            "bufferView" : 5,
            "componentType" : 5126,
            "count" : 10660,
            "type" : "VEC2"
        },
        {
            "bufferView" : 6,
            "componentType" : 5126,
            "count" : 10660,
            "type" : "VEC3"
        },
        {
            "bufferView" : 7,
            "componentType" : 5123,
            "count" : 16812,
            "type" : "SCALAR"
        },
        {
            "bufferView" : 8,
            "componentType" : 5126,
            "count" : 10660,
            "max" : [
                1,
                3.4975333213806152,
                1
            ],
            "min" : [
                -1,
                -1,
                -1
            ],
            "type" : "VEC3"
        },
        {
            "bufferView" : 9,
            "componentType" : 5126,
            "count" : 10660,
            "type" : "VEC2"
        },
        {
            "bufferView" : 10,
            "componentType" : 5126,
            "count" : 10660,
            "type" : "VEC3"
        }
    ],
    "bufferViews" : [
        {
            "buffer" : 0,
            "byteLength" : 6336,
            "byteOffset" : 0,
            "target" : 34962
        },
        {
            "buffer" : 0,
            "byteLength" : 4224,
            "byteOffset" : 6336,
            "target" : 34962
        },
        {
            "buffer" : 0,
            "byteLength" : 6336,
            "byteOffset" : 10560,
            "target" : 34962
        },
        {
            "buffer" : 0,
            "byteLength" : 1944,
            "byteOffset" : 16896,
            "target" : 34963
        },
        {
            "buffer" : 0,
            "byteLength" : 127920,
            "byteOffset" : 18840,
            "target" : 34962
        },
        {
            "buffer" : 0,
            "byteLength" : 85280,
            "byteOffset" : 146760,
            "target" : 34962
        },
        {
            "buffer" : 0,
            "byteLength" : 127920,
            "byteOffset" : 232040,
            "target" : 34962
        },
        {
            "buffer" : 0,
            "byteLength" : 33624,
            "byteOffset" : 359960,
            "target" : 34963
        },
        {
            "buffer" : 0,
            "byteLength" : 127920,
            "byteOffset" : 393584,
            "target" : 34962
        },
        {
            "buffer" : 0,
            "byteLength" : 85280,
            "byteOffset" : 521504,
            "target" : 34962
        },
        {
            "buffer" : 0,
            "byteLength" : 127920,
            "byteOffset" : 606784,
            "target" : 34962
        }
    ],
    "buffers" : [
        {
            "byteLength" : 734704,
            "uri" : "data:application/octet-stream;base64,"
        }
    ]
}
